<svg width="16" height="16" viewBox="0 0 16 16" fill="none" xmlns="http://www.w3.org/2000/svg">
<path d="M15.3996 13.4446C15.3996 13.6488 15.3648 13.8511 15.2972 14.0398C15.2296 14.2285 15.1306 14.4 15.0057 14.5444C14.8808 14.6889 14.7325 14.8034 14.5693 14.8816C14.4061 14.9598 14.2312 15 14.0546 15H1.94467C1.58794 15 1.24582 14.8361 0.993568 14.5444C0.741321 14.2527 0.599609 13.8571 0.599609 13.4446V4.8871C0.600071 4.47492 0.741986 4.0798 0.994183 3.78854C1.24638 3.49727 1.58824 3.33367 1.94467 3.33367H3.47911C4.19416 3.33367 4.85482 2.95192 5.21189 2.3324L5.40274 2.00127C5.75981 1.38175 6.42047 1 7.13553 1H8.85934C9.5744 1 10.2351 1.38175 10.5921 2.00127L10.783 2.3324C11.14 2.95192 11.8007 3.33367 12.5158 3.33367H14.0502C14.2272 3.33301 14.4026 3.37275 14.5663 3.45062C14.73 3.52849 14.8788 3.64296 15.0041 3.78746C15.1295 3.93197 15.2289 4.10366 15.2968 4.29271C15.3647 4.48175 15.3996 4.68442 15.3996 4.88911V13.4446Z" stroke="#848488" stroke-width="1.2" stroke-linecap="round" stroke-linejoin="round"/>
<path d="M11 8.63477C11 9.22811 10.8241 9.80813 10.4944 10.3015C10.1648 10.7948 9.69623 11.1793 9.14805 11.4064C8.59987 11.6335 7.99667 11.6929 7.41473 11.5771C6.83279 11.4614 6.29824 11.1756 5.87868 10.7561C5.45912 10.3365 5.1734 9.80198 5.05765 9.22004C4.94189 8.63809 5.0013 8.03489 5.22836 7.48671C5.45543 6.93854 5.83994 6.47 6.33329 6.14036C6.82664 5.81071 7.40666 5.63477 8 5.63477C8.79565 5.63477 9.55871 5.95084 10.1213 6.51344C10.6839 7.07605 11 7.83912 11 8.63477V8.63477Z" stroke="#848488" stroke-width="1.2" stroke-linecap="round" stroke-linejoin="round"/>
</svg>
