<svg width="15" height="13" viewBox="0 0 15 13" fill="none" xmlns="http://www.w3.org/2000/svg">
<path d="M11.1407 6.92855C11.1407 7.79049 10.7745 8.61712 10.1227 9.22659C9.47091 9.83607 8.58688 10.1785 7.66509 10.1785C6.7433 10.1785 5.85926 9.83607 5.20746 9.22659C4.55566 8.61712 4.18948 7.79049 4.18948 6.92855C4.18948 6.06662 4.55566 5.23999 5.20746 4.63051C5.85926 4.02103 6.7433 3.67863 7.66509 3.67863C8.58688 3.67863 9.47091 4.02103 10.1227 4.63051C10.7745 5.23999 11.1407 6.06662 11.1407 6.92855ZM9.98216 6.92855C9.98216 6.35393 9.73804 5.80284 9.3035 5.39652C8.86897 4.99021 8.27961 4.76194 7.66509 4.76194C7.05056 4.76194 6.4612 4.99021 6.02667 5.39652C5.59213 5.80284 5.34801 6.35393 5.34801 6.92855C5.34801 7.50317 5.59213 8.05426 6.02667 8.46058C6.4612 8.8669 7.05056 9.09517 7.66509 9.09517C8.27961 9.09517 8.86897 8.8669 9.3035 8.46058C9.73804 8.05426 9.98216 7.50317 9.98216 6.92855ZM6.06399 0.428711C5.74109 0.428721 5.42457 0.512854 5.14995 0.671673C4.87533 0.830492 4.65346 1.05772 4.50923 1.32786L3.83149 2.59532H3.03094C2.41641 2.59532 1.82706 2.82359 1.39252 3.22991C0.957987 3.63623 0.713867 4.18732 0.713867 4.76194V10.1785C0.713867 10.7531 0.957987 11.3042 1.39252 11.7105C1.82706 12.1168 2.41641 12.3451 3.03094 12.3451H12.2992C12.9138 12.3451 13.5031 12.1168 13.9377 11.7105C14.3722 11.3042 14.6163 10.7531 14.6163 10.1785V4.76194C14.6163 4.18732 14.3722 3.63623 13.9377 3.22991C13.5031 2.82359 12.9138 2.59532 12.2992 2.59532H11.4987L10.8209 1.32786C10.6767 1.05772 10.4548 0.830492 10.1802 0.671673C9.9056 0.512854 9.58909 0.428721 9.26618 0.428711H6.06399ZM5.54612 1.81101C5.59428 1.72115 5.66822 1.6456 5.75968 1.59279C5.85114 1.53999 5.9565 1.51202 6.06399 1.51202H9.26618C9.37367 1.51202 9.47904 1.53999 9.5705 1.59279C9.66195 1.6456 9.7359 1.72115 9.78405 1.81101L10.6228 3.37964C10.671 3.4695 10.7449 3.54505 10.8364 3.59786C10.9278 3.65066 11.0332 3.67863 11.1407 3.67863H12.2992C12.6065 3.67863 12.9012 3.79277 13.1184 3.99593C13.3357 4.19908 13.4578 4.47463 13.4578 4.76194V10.1785C13.4578 10.4658 13.3357 10.7413 13.1184 10.9445C12.9012 11.1476 12.6065 11.2618 12.2992 11.2618H3.03094C2.72368 11.2618 2.429 11.1476 2.21173 10.9445C1.99446 10.7413 1.8724 10.4658 1.8724 10.1785V4.76194C1.8724 4.47463 1.99446 4.19908 2.21173 3.99593C2.429 3.79277 2.72368 3.67863 3.03094 3.67863H4.18948C4.29696 3.67863 4.40233 3.65066 4.49379 3.59786C4.58525 3.54505 4.65919 3.4695 4.70734 3.37964L5.54612 1.81101Z" fill="#EC1D27"/>
</svg>
