<svg width="50" height="50" viewBox="0 0 50 50" fill="none" xmlns="http://www.w3.org/2000/svg">
<path d="M38.0253 44C35.6649 44 33.4563 42.9737 31.9389 41.1735C31.922 41.1399 31.8209 41.0557 31.7366 40.9211C31.5511 40.736 31.3319 40.3996 31.1465 40.0799C30.4046 38.8854 30 37.4721 30 35.9916C30 33.5352 31.0959 31.264 33.0011 29.7498C34.4173 28.6226 36.2044 28 38.0084 28C39.9642 28 41.7682 28.673 43.2181 29.9348C43.4205 30.0694 43.6565 30.3218 43.8757 30.5573C45.2413 32.0547 46 33.9726 46 35.9747C46 37.4385 45.5954 38.8686 44.8367 40.0967C44.432 40.8034 43.8757 41.4427 43.235 41.9811C41.8693 43.2934 39.9979 44 38.0253 44ZM38.0253 30.5405C36.7777 30.5405 35.5975 30.9611 34.6027 31.7518C33.3045 32.7781 32.5458 34.3428 32.5458 36.0084C32.5458 37.0011 32.8156 37.9768 33.3382 38.8181C33.4731 39.0536 33.608 39.2388 33.7597 39.4238C33.7935 39.4575 33.8946 39.5584 33.9789 39.693C34.9062 40.7865 36.4236 41.4932 38.0253 41.4932C39.3572 41.4932 40.6386 41.0053 41.6164 40.1304C42.0548 39.7603 42.4257 39.3228 42.6955 38.8517C43.235 37.9937 43.5047 37.0179 43.5047 36.0253C43.5047 34.6625 42.9821 33.3333 42.0379 32.307C41.9199 32.1724 41.785 32.0379 41.6502 31.9369C40.588 30.9948 39.3572 30.5405 38.0253 30.5405Z" fill="#EC1D27"/>
<path d="M39.9978 37H36.0022C35.4543 37 35 36.5467 35 36C35 35.4533 35.4543 35 36.0022 35H39.9978C40.5457 35 41 35.4533 41 36C41 36.5467 40.559 37 39.9978 37Z" fill="#EC1D27"/>
<path d="M25.0082 43C23.5649 43 22.1216 42.6821 21.0063 42.0296L12.2479 37.0774C9.86975 35.739 8 32.5099 8 29.7327V20.2631C8 17.4858 9.86975 14.2737 12.2479 12.9185L21.0063 7.96619C23.2368 6.67794 26.7467 6.67794 28.9937 7.96619L37.7521 12.9185C40.1303 14.2569 42 17.4858 42 20.2631V29.7327C42 29.9 42 30.0338 41.9672 30.2011C41.8852 30.6361 41.5736 31.0041 41.1635 31.138C40.7535 31.2886 40.2943 31.1883 39.9498 30.9038C38.0637 29.2308 35.1442 29.1638 33.1597 30.7867C31.8968 31.8073 31.1587 33.3632 31.1587 35.0195C31.1587 36.0066 31.4211 36.977 31.9296 37.8136C32.0608 38.0478 32.192 38.2318 32.3396 38.4158C32.5856 38.7003 32.684 39.0851 32.6184 39.4531C32.5528 39.8212 32.3232 40.1391 31.9952 40.3232L28.9937 42.0129C27.8784 42.6821 26.4515 43 25.0082 43ZM25.0082 9.53887C23.9913 9.53887 22.958 9.75637 22.22 10.1746L13.4617 15.1269C11.8707 16.0136 10.493 18.4228 10.493 20.2631V29.7327C10.493 31.573 11.8871 33.9822 13.4617 34.869L22.22 39.8212C23.7125 40.6744 26.3203 40.6744 27.8128 39.8212L29.6498 38.7839C29.0429 37.6629 28.7149 36.3579 28.7149 35.0195C28.7149 32.5768 29.781 30.3183 31.6343 28.8125C33.8649 26.9889 37.0632 26.604 39.5562 27.6915V20.2297C39.5562 18.3894 38.1621 15.9801 36.5875 15.0934L27.8292 10.1411C27.0584 9.75634 26.0251 9.53887 25.0082 9.53887Z" fill="#EC1D27"/>
<path d="M25.0082 9.53887C23.9913 9.53887 22.958 9.75637 22.22 10.1746L13.4617 15.1269C11.8707 16.0136 10.493 18.4228 10.493 20.2631V29.7327C10.493 31.573 11.8871 33.9822 13.4617 34.869L22.22 39.8212C23.7125 40.6744 26.3203 40.6744 27.8128 39.8212L29.6498 38.7839C29.0429 37.6629 28.7149 36.3579 28.7149 35.0195C28.7149 32.5768 29.781 30.3183 31.6343 28.8125C33.8649 26.9889 37.0632 26.604 39.5562 27.6915V20.2297C39.5562 18.3894 38.1621 15.9801 36.5875 15.0934L27.8292 10.1411C27.0584 9.75634 26.0251 9.53887 25.0082 9.53887Z" fill="#EC1D27"/>
<path d="M30.3233 38.9777L29.8956 39.2192L28.061 40.2552C28.0606 40.2554 28.0603 40.2556 28.0599 40.2558C27.2161 40.7379 26.0984 40.9611 25.0164 40.9611C23.9342 40.9611 22.8164 40.7378 21.9725 40.2556C21.9723 40.2555 21.972 40.2554 21.9718 40.2552L13.2163 35.3046C13.2162 35.3046 13.2161 35.3045 13.216 35.3045C12.3271 34.8038 11.5281 33.9016 10.954 32.9087C10.3795 31.915 9.99299 30.7662 9.99299 29.7327V20.2631C9.99299 19.2308 10.3746 18.0823 10.9475 17.0878C11.5196 16.0946 12.3189 15.1919 13.2168 14.691C13.2173 14.6907 13.2178 14.6904 13.2182 14.6902L21.9735 9.73963L30.3233 38.9777ZM30.3233 38.9777L30.0895 38.5458M30.3233 38.9777L30.0895 38.5458M30.0895 38.5458C29.5235 37.5003 29.2149 36.2775 29.2149 35.0195C29.2149 32.7242 30.2155 30.6094 31.9496 29.2006L31.9508 29.1996M30.0895 38.5458L31.9508 29.1996M31.9508 29.1996C34.0348 27.4958 37.0334 27.1365 39.3563 28.1498L40.0562 28.4551M31.9508 29.1996L40.0562 28.4551M40.0562 28.4551V27.6915V20.2297C40.0562 19.1962 39.6697 18.0474 39.0952 17.0537C38.5211 16.0608 37.7222 15.1587 36.8334 14.658C36.8332 14.6579 36.8331 14.6579 36.8329 14.6578L28.0753 9.7059L28.0641 9.69955M40.0562 28.4551L28.0641 9.69955M28.0641 9.69955L28.0525 9.69378M28.0641 9.69955L28.0525 9.69378M28.0525 9.69378C27.1995 9.26796 26.0869 9.03887 25.0082 9.03887C23.9333 9.03887 22.8083 9.26667 21.9739 9.7394L28.0525 9.69378ZM21.2587 41.598L21.2588 41.598L21.2524 41.5944L12.494 36.6422L12.4932 36.6417C11.3989 36.0258 10.3956 34.9571 9.66493 33.6942C8.9345 32.4317 8.5 31.0158 8.5 29.7327V20.2631C8.5 18.9802 8.93436 17.5686 9.66476 16.3082C10.3951 15.0479 11.3987 13.9781 12.4948 13.3533C12.495 13.3532 12.4953 13.353 12.4955 13.3529L21.2524 8.40143L21.2524 8.40145L21.2563 8.39917C22.2794 7.8083 23.6237 7.5 24.9938 7.5C26.3639 7.5 27.713 7.80825 28.745 8.39996L28.7476 8.40143L37.506 13.3537L37.5068 13.3542C38.6011 13.9701 39.6044 15.0388 40.3351 16.3016C41.0655 17.5641 41.5 18.98 41.5 20.2631V29.7327C41.5 29.9022 41.4989 29.991 41.4765 30.1049L41.4758 30.1084C41.4257 30.3746 41.235 30.5887 41.0084 30.6627L40.9997 30.6655L40.9912 30.6686C40.7698 30.7499 40.4975 30.7045 40.2742 30.5232C38.2038 28.6933 35.0154 28.6242 32.8442 30.3988C31.4625 31.5159 30.6587 33.2153 30.6587 35.0195C30.6587 36.0916 30.9429 37.1496 31.4977 38.0657C31.6439 38.3256 31.7905 38.5304 31.9496 38.7287L31.9554 38.7359L31.9614 38.7429C32.1045 38.9083 32.1665 39.1391 32.1262 39.3654C32.0874 39.5827 31.9511 39.7746 31.7505 39.8871L31.7499 39.8874L28.7484 41.5771L28.7483 41.577L28.7365 41.5841C27.7176 42.1955 26.3855 42.5 25.0082 42.5C23.6299 42.5 22.2793 42.1951 21.2587 41.598ZM22.4661 10.6099L22.4665 10.6096C23.1082 10.246 24.0496 10.0389 25.0082 10.0389C25.9581 10.0389 26.9069 10.2425 27.5947 10.5829L36.3414 15.5287L36.3422 15.5291C37.0277 15.9152 37.7129 16.6609 38.2295 17.5542C38.7456 18.4469 39.0562 19.4229 39.0562 20.2297V26.9691C36.5183 26.1532 33.492 26.6484 31.3186 28.4248C29.3463 30.0275 28.2149 32.4296 28.2149 35.0195C28.2149 36.2678 28.4839 37.4915 28.9896 38.5825L27.567 39.3858L27.5647 39.3871C26.9161 39.7578 25.9841 39.9611 25.0164 39.9611C24.0487 39.9611 23.1167 39.7578 22.4681 39.3871L22.4661 39.3859L13.7078 34.4337L13.707 34.4333C13.0215 34.0472 12.3363 33.3015 11.8197 32.4082C11.3036 31.5155 10.993 30.5395 10.993 29.7327V20.2631C10.993 19.4551 11.3003 18.4788 11.814 17.587C12.3282 16.6944 13.0127 15.9496 13.7051 15.5637L13.7051 15.5637L13.7078 15.5622L22.4661 10.6099Z" stroke="#EC1D27"/>
<path d="M38 39C37.4533 39 37 38.5457 37 37.9978V34.0022C37 33.4543 37.4533 33 38 33C38.5467 33 39 33.4543 39 34.0022V37.9978C39 38.559 38.5467 39 38 39Z" fill="#EC1D27"/>
<path d="M25.0605 27C24.8426 27 24.6248 26.9501 24.4236 26.8337L9.62565 18.3342C9.02233 17.985 8.82124 17.2198 9.17318 16.621C9.52511 16.0222 10.296 15.8226 10.8826 16.1719L25.0437 24.3055L39.1211 16.2218C39.7244 15.8725 40.4953 16.0888 40.8305 16.6709C41.1824 17.2697 40.9646 18.0348 40.378 18.3841L25.6806 26.8337C25.4962 26.9335 25.2784 27 25.0605 27Z" fill="white"/>
<path d="M25 43C24.4533 43 24 42.421 24 41.7228V26.2772C24 25.579 24.4533 25 25 25C25.5467 25 26 25.579 26 26.2772V41.7228C26 42.421 25.5467 43 25 43Z" fill="white"/>
</svg>
