<svg width="50" height="50" viewBox="0 0 50 50" fill="none" xmlns="http://www.w3.org/2000/svg">
<path fill-rule="evenodd" clip-rule="evenodd" d="M31.0509 11.1784C31.0509 15.3798 34.4618 18.7857 38.6693 18.7857C39.1326 18.7834 39.5947 18.7389 40.0499 18.6528V33.7344C40.0499 40.0793 36.3073 43.8331 29.9531 43.8331H16.1135C9.74266 43.8331 6 40.0793 6 33.7344V19.9151C6 13.5702 9.74266 9.7832 16.1135 9.7832H31.184C31.0945 10.2429 31.05 10.7101 31.0509 11.1784ZM27.0924 30.3958L32.4984 23.4197V23.3865C32.9612 22.7646 32.8431 21.8877 32.2323 21.41C31.9366 21.1817 31.5609 21.0829 31.191 21.1361C30.8211 21.1894 30.4886 21.39 30.2695 21.6923L25.7117 27.5556L20.5219 23.4696C20.2256 23.2387 19.8487 23.1368 19.4762 23.1868C19.1037 23.2368 18.7672 23.4345 18.5424 23.7353L12.9534 30.9439C12.7569 31.1888 12.6512 31.4939 12.654 31.8077C12.6216 32.4418 13.022 33.0178 13.6283 33.2091C14.2345 33.4005 14.8938 33.159 15.2323 32.6215L19.9064 26.5756L25.0963 30.645C25.3914 30.883 25.7709 30.9908 26.1473 30.9439C26.5238 30.8969 26.8649 30.699 27.0924 30.3958Z" fill="#EC1D27"/>
<circle cx="39.1042" cy="10.7292" r="4.72916" fill="#EC1D27"/>
</svg>
